<svg height="11470" width="720" xmlns="http://www.w3.org/2000/svg">
<rect height="11470" fill="#555" width="720"></rect>
<text fill="#7f7" font-family="Courier New" font-size="12" xml:space="preserve">
<tspan x="10" y="26">144 megabytes installed</tspan>
<tspan x="10" y="42"></tspan>
<tspan x="10" y="58">node_modules</tspan>
<tspan x="10" y="74">└─┬ keystone@4.0.0-beta.5 </tspan>
<tspan x="10" y="90">  ├─┬ aphrodite@1.1.0 </tspan>
<tspan x="10" y="106">  │ ├── asap@2.0.5 </tspan>
<tspan x="10" y="122">  │ └─┬ inline-style-prefixer@2.0.5 </tspan>
<tspan x="10" y="138">  │   ├── bowser@1.6.1 </tspan>
<tspan x="10" y="154">  │   └── hyphenate-style-name@1.0.2 </tspan>
<tspan x="10" y="170">  ├── async@2.1.4 </tspan>
<tspan x="10" y="186">  ├─┬ asyncdi@1.1.0 </tspan>
<tspan x="10" y="202">  │ ├── async@0.9.2 </tspan>
<tspan x="10" y="218">  │ └── lodash@3.10.1 </tspan>
<tspan x="10" y="234">  ├─┬ babel-core@6.22.1 </tspan>
<tspan x="10" y="250">  │ ├─┬ babel-code-frame@6.22.0 </tspan>
<tspan x="10" y="266">  │ │ ├── esutils@2.0.2 </tspan>
<tspan x="10" y="282">  │ │ └── js-tokens@3.0.1 </tspan>
<tspan x="10" y="298">  │ ├─┬ babel-generator@6.24.1 </tspan>
<tspan x="10" y="314">  │ │ ├─┬ detect-indent@4.0.0 </tspan>
<tspan x="10" y="330">  │ │ │ └─┬ repeating@2.0.1 </tspan>
<tspan x="10" y="346">  │ │ │   └─┬ is-finite@1.0.2 </tspan>
<tspan x="10" y="362">  │ │ │     └── number-is-nan@1.0.1 </tspan>
<tspan x="10" y="378">  │ │ ├── jsesc@1.3.0 </tspan>
<tspan x="10" y="394">  │ │ └── trim-right@1.0.1 </tspan>
<tspan x="10" y="410">  │ ├── babel-helpers@6.24.1 </tspan>
<tspan x="10" y="426">  │ ├── babel-messages@6.23.0 </tspan>
<tspan x="10" y="442">  │ ├─┬ babel-register@6.24.1 </tspan>
<tspan x="10" y="458">  │ │ ├── babel-core@6.24.1 </tspan>
<tspan x="10" y="474">  │ │ ├─┬ home-or-tmp@2.0.0 </tspan>
<tspan x="10" y="490">  │ │ │ ├── os-homedir@1.0.2 </tspan>
<tspan x="10" y="506">  │ │ │ └── os-tmpdir@1.0.2 </tspan>
<tspan x="10" y="522">  │ │ └── source-map-support@0.4.14 </tspan>
<tspan x="10" y="538">  │ ├── babel-runtime@6.23.0 </tspan>
<tspan x="10" y="554">  │ ├── babel-template@6.24.1 </tspan>
<tspan x="10" y="570">  │ ├─┬ babel-traverse@6.24.1 </tspan>
<tspan x="10" y="586">  │ │ └── globals@9.17.0 </tspan>
<tspan x="10" y="602">  │ ├─┬ babel-types@6.24.1 </tspan>
<tspan x="10" y="618">  │ │ └── to-fast-properties@1.0.2 </tspan>
<tspan x="10" y="634">  │ ├── babylon@6.17.0 </tspan>
<tspan x="10" y="650">  │ ├── convert-source-map@1.5.0 </tspan>
<tspan x="10" y="666">  │ ├── json5@0.5.1 </tspan>
<tspan x="10" y="682">  │ ├─┬ minimatch@3.0.3 </tspan>
<tspan x="10" y="698">  │ │ └─┬ brace-expansion@1.1.7 </tspan>
<tspan x="10" y="714">  │ │   ├── balanced-match@0.4.2 </tspan>
<tspan x="10" y="730">  │ │   └── concat-map@0.0.1 </tspan>
<tspan x="10" y="746">  │ ├── path-is-absolute@1.0.1 </tspan>
<tspan x="10" y="762">  │ ├── private@0.1.7 </tspan>
<tspan x="10" y="778">  │ ├── slash@1.0.0 </tspan>
<tspan x="10" y="794">  │ └── source-map@0.5.6 </tspan>
<tspan x="10" y="810">  ├── babel-plugin-transform-object-assign@6.22.0 </tspan>
<tspan x="10" y="826">  ├─┬ babel-polyfill@6.22.0 </tspan>
<tspan x="10" y="842">  │ ├── core-js@2.4.1 </tspan>
<tspan x="10" y="858">  │ └── regenerator-runtime@0.10.3 </tspan>
<tspan x="10" y="874">  ├─┬ babel-preset-es2015@6.22.0 </tspan>
<tspan x="10" y="890">  │ ├── babel-plugin-check-es2015-constants@6.22.0 </tspan>
<tspan x="10" y="906">  │ ├── babel-plugin-transform-es2015-arrow-functions@6.22.0 </tspan>
<tspan x="10" y="922">  │ ├── babel-plugin-transform-es2015-block-scoped-functions@6.22.0 </tspan>
<tspan x="10" y="938">  │ ├── babel-plugin-transform-es2015-block-scoping@6.24.1 </tspan>
<tspan x="10" y="954">  │ ├─┬ babel-plugin-transform-es2015-classes@6.24.1 </tspan>
<tspan x="10" y="970">  │ │ ├── babel-helper-define-map@6.24.1 </tspan>
<tspan x="10" y="986">  │ │ ├── babel-helper-function-name@6.24.1 </tspan>
<tspan x="10" y="1002">  │ │ ├── babel-helper-optimise-call-expression@6.24.1 </tspan>
<tspan x="10" y="1018">  │ │ └── babel-helper-replace-supers@6.24.1 </tspan>
<tspan x="10" y="1034">  │ ├── babel-plugin-transform-es2015-computed-properties@6.24.1 </tspan>
<tspan x="10" y="1050">  │ ├── babel-plugin-transform-es2015-destructuring@6.23.0 </tspan>
<tspan x="10" y="1066">  │ ├── babel-plugin-transform-es2015-duplicate-keys@6.24.1 </tspan>
<tspan x="10" y="1082">  │ ├── babel-plugin-transform-es2015-for-of@6.23.0 </tspan>
<tspan x="10" y="1098">  │ ├── babel-plugin-transform-es2015-function-name@6.24.1 </tspan>
<tspan x="10" y="1114">  │ ├── babel-plugin-transform-es2015-literals@6.22.0 </tspan>
<tspan x="10" y="1130">  │ ├── babel-plugin-transform-es2015-modules-amd@6.24.1 </tspan>
<tspan x="10" y="1146">  │ ├─┬ babel-plugin-transform-es2015-modules-commonjs@6.24.1 </tspan>
<tspan x="10" y="1162">  │ │ └── babel-plugin-transform-strict-mode@6.24.1 </tspan>
<tspan x="10" y="1178">  │ ├─┬ babel-plugin-transform-es2015-modules-systemjs@6.24.1 </tspan>
<tspan x="10" y="1194">  │ │ └── babel-helper-hoist-variables@6.24.1 </tspan>
<tspan x="10" y="1210">  │ ├── babel-plugin-transform-es2015-modules-umd@6.24.1 </tspan>
<tspan x="10" y="1226">  │ ├── babel-plugin-transform-es2015-object-super@6.24.1 </tspan>
<tspan x="10" y="1242">  │ ├─┬ babel-plugin-transform-es2015-parameters@6.24.1 </tspan>
<tspan x="10" y="1258">  │ │ ├── babel-helper-call-delegate@6.24.1 </tspan>
<tspan x="10" y="1274">  │ │ └── babel-helper-get-function-arity@6.24.1 </tspan>
<tspan x="10" y="1290">  │ ├── babel-plugin-transform-es2015-shorthand-properties@6.24.1 </tspan>
<tspan x="10" y="1306">  │ ├── babel-plugin-transform-es2015-spread@6.22.0 </tspan>
<tspan x="10" y="1322">  │ ├─┬ babel-plugin-transform-es2015-sticky-regex@6.24.1 </tspan>
<tspan x="10" y="1338">  │ │ └── babel-helper-regex@6.24.1 </tspan>
<tspan x="10" y="1354">  │ ├── babel-plugin-transform-es2015-template-literals@6.22.0 </tspan>
<tspan x="10" y="1370">  │ ├── babel-plugin-transform-es2015-typeof-symbol@6.23.0 </tspan>
<tspan x="10" y="1386">  │ ├─┬ babel-plugin-transform-es2015-unicode-regex@6.24.1 </tspan>
<tspan x="10" y="1402">  │ │ └─┬ regexpu-core@2.0.0 </tspan>
<tspan x="10" y="1418">  │ │   ├── regenerate@1.3.2 </tspan>
<tspan x="10" y="1434">  │ │   ├── regjsgen@0.2.0 </tspan>
<tspan x="10" y="1450">  │ │   └─┬ regjsparser@0.1.5 </tspan>
<tspan x="10" y="1466">  │ │     └── jsesc@0.5.0 </tspan>
<tspan x="10" y="1482">  │ └─┬ babel-plugin-transform-regenerator@6.24.1 </tspan>
<tspan x="10" y="1498">  │   └── regenerator-transform@0.9.11 </tspan>
<tspan x="10" y="1514">  ├─┬ babel-preset-react@6.22.0 </tspan>
<tspan x="10" y="1530">  │ ├── babel-plugin-syntax-flow@6.18.0 </tspan>
<tspan x="10" y="1546">  │ ├── babel-plugin-syntax-jsx@6.18.0 </tspan>
<tspan x="10" y="1562">  │ ├── babel-plugin-transform-flow-strip-types@6.22.0 </tspan>
<tspan x="10" y="1578">  │ ├── babel-plugin-transform-react-display-name@6.23.0 </tspan>
<tspan x="10" y="1594">  │ ├─┬ babel-plugin-transform-react-jsx@6.24.1 </tspan>
<tspan x="10" y="1610">  │ │ └── babel-helper-builder-react-jsx@6.24.1 </tspan>
<tspan x="10" y="1626">  │ ├── babel-plugin-transform-react-jsx-self@6.22.0 </tspan>
<tspan x="10" y="1642">  │ └── babel-plugin-transform-react-jsx-source@6.22.0 </tspan>
<tspan x="10" y="1658">  ├─┬ babel-preset-stage-2@6.22.0 </tspan>
<tspan x="10" y="1674">  │ ├── babel-plugin-syntax-dynamic-import@6.18.0 </tspan>
<tspan x="10" y="1690">  │ ├─┬ babel-plugin-transform-class-properties@6.24.1 </tspan>
<tspan x="10" y="1706">  │ │ └── babel-plugin-syntax-class-properties@6.13.0 </tspan>
<tspan x="10" y="1722">  │ ├─┬ babel-plugin-transform-decorators@6.24.1 </tspan>
<tspan x="10" y="1738">  │ │ ├─┬ babel-helper-explode-class@6.24.1 </tspan>
<tspan x="10" y="1754">  │ │ │ └── babel-helper-bindify-decorators@6.24.1 </tspan>
<tspan x="10" y="1770">  │ │ └── babel-plugin-syntax-decorators@6.13.0 </tspan>
<tspan x="10" y="1786">  │ └─┬ babel-preset-stage-3@6.24.1 </tspan>
<tspan x="10" y="1802">  │   ├── babel-plugin-syntax-trailing-function-commas@6.22.0 </tspan>
<tspan x="10" y="1818">  │   ├─┬ babel-plugin-transform-async-generator-functions@6.24.1 </tspan>
<tspan x="10" y="1834">  │   │ ├── babel-helper-remap-async-to-generator@6.24.1 </tspan>
<tspan x="10" y="1850">  │   │ └── babel-plugin-syntax-async-generators@6.13.0 </tspan>
<tspan x="10" y="1866">  │   ├─┬ babel-plugin-transform-async-to-generator@6.24.1 </tspan>
<tspan x="10" y="1882">  │   │ └── babel-plugin-syntax-async-functions@6.13.0 </tspan>
<tspan x="10" y="1898">  │   ├─┬ babel-plugin-transform-exponentiation-operator@6.24.1 </tspan>
<tspan x="10" y="1914">  │   │ ├─┬ babel-helper-builder-binary-assignment-operator-visitor@6.24.1 </tspan>
<tspan x="10" y="1930">  │   │ │ └── babel-helper-explode-assignable-expression@6.24.1 </tspan>
<tspan x="10" y="1946">  │   │ └── babel-plugin-syntax-exponentiation-operator@6.13.0 </tspan>
<tspan x="10" y="1962">  │   └─┬ babel-plugin-transform-object-rest-spread@6.23.0 </tspan>
<tspan x="10" y="1978">  │     └── babel-plugin-syntax-object-rest-spread@6.13.0 </tspan>
<tspan x="10" y="1994">  ├── babelify@7.3.0 </tspan>
<tspan x="10" y="2010">  ├── babyparse@0.4.6 </tspan>
<tspan x="10" y="2026">  ├── bcrypt-nodejs@0.0.3 </tspan>
<tspan x="10" y="2042">  ├── blacklist@1.1.4 </tspan>
<tspan x="10" y="2058">  ├─┬ body-parser@1.16.0 </tspan>
<tspan x="10" y="2074">  │ ├── bytes@2.4.0 </tspan>
<tspan x="10" y="2090">  │ ├── content-type@1.0.2 </tspan>
<tspan x="10" y="2106">  │ ├── depd@1.1.0 </tspan>
<tspan x="10" y="2122">  │ ├─┬ http-errors@1.5.1 </tspan>
<tspan x="10" y="2138">  │ │ ├── setprototypeof@1.0.2 </tspan>
<tspan x="10" y="2154">  │ │ └── statuses@1.3.1 </tspan>
<tspan x="10" y="2170">  │ ├── iconv-lite@0.4.15 </tspan>
<tspan x="10" y="2186">  │ ├─┬ on-finished@2.3.0 </tspan>
<tspan x="10" y="2202">  │ │ └── ee-first@1.1.1 </tspan>
<tspan x="10" y="2218">  │ ├── qs@6.2.1 </tspan>
<tspan x="10" y="2234">  │ ├─┬ raw-body@2.2.0 </tspan>
<tspan x="10" y="2250">  │ │ └── unpipe@1.0.0 </tspan>
<tspan x="10" y="2266">  │ └─┬ type-is@1.6.15 </tspan>
<tspan x="10" y="2282">  │   ├── media-typer@0.3.0 </tspan>
<tspan x="10" y="2298">  │   └── mime-types@2.1.15 </tspan>
<tspan x="10" y="2314">  ├─┬ brfs@1.4.3 </tspan>
<tspan x="10" y="2330">  │ ├─┬ quote-stream@1.0.2 </tspan>
<tspan x="10" y="2346">  │ │ ├── buffer-equal@0.0.1 </tspan>
<tspan x="10" y="2362">  │ │ └── minimist@1.2.0 </tspan>
<tspan x="10" y="2378">  │ ├─┬ resolve@1.3.3 </tspan>
<tspan x="10" y="2394">  │ │ └── path-parse@1.0.5 </tspan>
<tspan x="10" y="2410">  │ ├─┬ static-module@1.3.1 </tspan>
<tspan x="10" y="2426">  │ │ ├─┬ concat-stream@1.4.10 </tspan>
<tspan x="10" y="2442">  │ │ │ └─┬ readable-stream@1.1.14 </tspan>
<tspan x="10" y="2458">  │ │ │   ├── isarray@0.0.1 </tspan>
<tspan x="10" y="2474">  │ │ │   └── string_decoder@0.10.31 </tspan>
<tspan x="10" y="2490">  │ │ ├─┬ duplexer2@0.0.2 </tspan>
<tspan x="10" y="2506">  │ │ │ └─┬ readable-stream@1.1.14 </tspan>
<tspan x="10" y="2522">  │ │ │   ├── isarray@0.0.1 </tspan>
<tspan x="10" y="2538">  │ │ │   └── string_decoder@0.10.31 </tspan>
<tspan x="10" y="2554">  │ │ ├─┬ escodegen@1.3.3 </tspan>
<tspan x="10" y="2570">  │ │ │ ├── esprima@1.1.1 </tspan>
<tspan x="10" y="2586">  │ │ │ ├── estraverse@1.5.1 </tspan>
<tspan x="10" y="2602">  │ │ │ ├── esutils@1.0.0 </tspan>
<tspan x="10" y="2618">  │ │ │ └─┬ source-map@0.1.43 </tspan>
<tspan x="10" y="2634">  │ │ │   └── amdefine@1.0.1 </tspan>
<tspan x="10" y="2650">  │ │ ├─┬ falafel@1.2.0 </tspan>
<tspan x="10" y="2666">  │ │ │ ├── acorn@1.2.2 </tspan>
<tspan x="10" y="2682">  │ │ │ ├── foreach@2.0.5 </tspan>
<tspan x="10" y="2698">  │ │ │ ├── isarray@0.0.1 </tspan>
<tspan x="10" y="2714">  │ │ │ └── object-keys@1.0.11 </tspan>
<tspan x="10" y="2730">  │ │ ├── object-inspect@0.4.0 </tspan>
<tspan x="10" y="2746">  │ │ ├── quote-stream@0.0.0 </tspan>
<tspan x="10" y="2762">  │ │ ├─┬ readable-stream@1.0.34 </tspan>
<tspan x="10" y="2778">  │ │ │ ├── isarray@0.0.1 </tspan>
<tspan x="10" y="2794">  │ │ │ └── string_decoder@0.10.31 </tspan>
<tspan x="10" y="2810">  │ │ ├── shallow-copy@0.0.1 </tspan>
<tspan x="10" y="2826">  │ │ ├─┬ static-eval@0.2.4 </tspan>
<tspan x="10" y="2842">  │ │ │ └─┬ escodegen@0.0.28 </tspan>
<tspan x="10" y="2858">  │ │ │   ├── esprima@1.0.4 </tspan>
<tspan x="10" y="2874">  │ │ │   └── estraverse@1.3.2 </tspan>
<tspan x="10" y="2890">  │ │ └─┬ through2@0.4.2 </tspan>
<tspan x="10" y="2906">  │ │   └─┬ xtend@2.1.2 </tspan>
<tspan x="10" y="2922">  │ │     └── object-keys@0.4.0 </tspan>
<tspan x="10" y="2938">  │ └── through2@2.0.3 </tspan>
<tspan x="10" y="2954">  ├─┬ browserify@13.3.0 </tspan>
<tspan x="10" y="2970">  │ ├── assert@1.4.1 </tspan>
<tspan x="10" y="2986">  │ ├─┬ browser-pack@6.0.2 </tspan>
<tspan x="10" y="3002">  │ │ ├─┬ combine-source-map@0.7.2 </tspan>
<tspan x="10" y="3018">  │ │ │ ├── convert-source-map@1.1.3 </tspan>
<tspan x="10" y="3034">  │ │ │ ├── inline-source-map@0.6.2 </tspan>
<tspan x="10" y="3050">  │ │ │ └── lodash.memoize@3.0.4 </tspan>
<tspan x="10" y="3066">  │ │ └── umd@3.0.1 </tspan>
<tspan x="10" y="3082">  │ ├─┬ browser-resolve@1.11.2 </tspan>
<tspan x="10" y="3098">  │ │ └── resolve@1.1.7 </tspan>
<tspan x="10" y="3114">  │ ├─┬ browserify-zlib@0.1.4 </tspan>
<tspan x="10" y="3130">  │ │ └── pako@0.2.9 </tspan>
<tspan x="10" y="3146">  │ ├─┬ buffer@4.9.1 </tspan>
<tspan x="10" y="3162">  │ │ ├── base64-js@1.2.0 </tspan>
<tspan x="10" y="3178">  │ │ ├── ieee754@1.1.8 </tspan>
<tspan x="10" y="3194">  │ │ └── isarray@1.0.0 </tspan>
<tspan x="10" y="3210">  │ ├── cached-path-relative@1.0.1 </tspan>
<tspan x="10" y="3226">  │ ├─┬ concat-stream@1.5.2 </tspan>
<tspan x="10" y="3242">  │ │ ├── readable-stream@2.0.6 </tspan>
<tspan x="10" y="3258">  │ │ └── typedarray@0.0.6 </tspan>
<tspan x="10" y="3274">  │ ├─┬ console-browserify@1.1.0 </tspan>
<tspan x="10" y="3290">  │ │ └── date-now@0.1.4 </tspan>
<tspan x="10" y="3306">  │ ├── constants-browserify@1.0.0 </tspan>
<tspan x="10" y="3322">  │ ├─┬ crypto-browserify@3.11.0 </tspan>
<tspan x="10" y="3338">  │ │ ├─┬ browserify-cipher@1.0.0 </tspan>
<tspan x="10" y="3354">  │ │ │ ├─┬ browserify-aes@1.0.6 </tspan>
<tspan x="10" y="3370">  │ │ │ │ └── buffer-xor@1.0.3 </tspan>
<tspan x="10" y="3386">  │ │ │ ├─┬ browserify-des@1.0.0 </tspan>
<tspan x="10" y="3402">  │ │ │ │ └── des.js@1.0.0 </tspan>
<tspan x="10" y="3418">  │ │ │ └── evp_bytestokey@1.0.0 </tspan>
<tspan x="10" y="3434">  │ │ ├─┬ browserify-sign@4.0.4 </tspan>
<tspan x="10" y="3450">  │ │ │ ├── bn.js@4.11.6 </tspan>
<tspan x="10" y="3466">  │ │ │ ├── browserify-rsa@4.0.1 </tspan>
<tspan x="10" y="3482">  │ │ │ ├─┬ elliptic@6.4.0 </tspan>
<tspan x="10" y="3498">  │ │ │ │ ├── brorand@1.1.0 </tspan>
<tspan x="10" y="3514">  │ │ │ │ ├── hash.js@1.0.3 </tspan>
<tspan x="10" y="3530">  │ │ │ │ ├── hmac-drbg@1.0.1 </tspan>
<tspan x="10" y="3546">  │ │ │ │ ├── minimalistic-assert@1.0.0 </tspan>
<tspan x="10" y="3562">  │ │ │ │ └── minimalistic-crypto-utils@1.0.1 </tspan>
<tspan x="10" y="3578">  │ │ │ └─┬ parse-asn1@5.1.0 </tspan>
<tspan x="10" y="3594">  │ │ │   └── asn1.js@4.9.1 </tspan>
<tspan x="10" y="3610">  │ │ ├── create-ecdh@4.0.0 </tspan>
<tspan x="10" y="3626">  │ │ ├─┬ create-hash@1.1.2 </tspan>
<tspan x="10" y="3642">  │ │ │ ├── cipher-base@1.0.3 </tspan>
<tspan x="10" y="3658">  │ │ │ └── ripemd160@1.0.1 </tspan>
<tspan x="10" y="3674">  │ │ ├── create-hmac@1.1.4 </tspan>
<tspan x="10" y="3690">  │ │ ├─┬ diffie-hellman@5.0.2 </tspan>
<tspan x="10" y="3706">  │ │ │ └── miller-rabin@4.0.0 </tspan>
<tspan x="10" y="3722">  │ │ ├── pbkdf2@3.0.9 </tspan>
<tspan x="10" y="3738">  │ │ ├── public-encrypt@4.0.0 </tspan>
<tspan x="10" y="3754">  │ │ └── randombytes@2.0.3 </tspan>
<tspan x="10" y="3770">  │ ├── defined@1.0.0 </tspan>
<tspan x="10" y="3786">  │ ├── deps-sort@2.0.0 </tspan>
<tspan x="10" y="3802">  │ ├── domain-browser@1.1.7 </tspan>
<tspan x="10" y="3818">  │ ├── duplexer2@0.1.4 </tspan>
<tspan x="10" y="3834">  │ ├── events@1.1.1 </tspan>
<tspan x="10" y="3850">  │ ├─┬ glob@7.1.1 </tspan>
<tspan x="10" y="3866">  │ │ ├── fs.realpath@1.0.0 </tspan>
<tspan x="10" y="3882">  │ │ └── inflight@1.0.6 </tspan>
<tspan x="10" y="3898">  │ ├─┬ has@1.0.1 </tspan>
<tspan x="10" y="3914">  │ │ └── function-bind@1.1.0 </tspan>
<tspan x="10" y="3930">  │ ├── htmlescape@1.1.1 </tspan>
<tspan x="10" y="3946">  │ ├── https-browserify@0.0.1 </tspan>
<tspan x="10" y="3962">  │ ├── inherits@2.0.3 </tspan>
<tspan x="10" y="3978">  │ ├─┬ insert-module-globals@7.0.1 </tspan>
<tspan x="10" y="3994">  │ │ ├─┬ concat-stream@1.5.2 </tspan>
<tspan x="10" y="4010">  │ │ │ └─┬ readable-stream@2.0.6 </tspan>
<tspan x="10" y="4026">  │ │ │   └── string_decoder@0.10.31 </tspan>
<tspan x="10" y="4042">  │ │ ├── is-buffer@1.1.5 </tspan>
<tspan x="10" y="4058">  │ │ └─┬ lexical-scope@1.2.0 </tspan>
<tspan x="10" y="4074">  │ │   └─┬ astw@2.2.0 </tspan>
<tspan x="10" y="4090">  │ │     └── acorn@4.0.11 </tspan>
<tspan x="10" y="4106">  │ ├─┬ JSONStream@1.3.1 </tspan>
<tspan x="10" y="4122">  │ │ └── jsonparse@1.3.0 </tspan>
<tspan x="10" y="4138">  │ ├─┬ labeled-stream-splicer@2.0.0 </tspan>
<tspan x="10" y="4154">  │ │ ├── isarray@0.0.1 </tspan>
<tspan x="10" y="4170">  │ │ └── stream-splicer@2.0.0 </tspan>
<tspan x="10" y="4186">  │ ├─┬ module-deps@4.1.1 </tspan>
<tspan x="10" y="4202">  │ │ ├─┬ concat-stream@1.5.2 </tspan>
<tspan x="10" y="4218">  │ │ │ └─┬ readable-stream@2.0.6 </tspan>
<tspan x="10" y="4234">  │ │ │   └── string_decoder@0.10.31 </tspan>
<tspan x="10" y="4250">  │ │ ├─┬ detective@4.5.0 </tspan>
<tspan x="10" y="4266">  │ │ │ └── acorn@4.0.11 </tspan>
<tspan x="10" y="4282">  │ │ ├── duplexer2@0.1.4 </tspan>
<tspan x="10" y="4298">  │ │ └─┬ stream-combiner2@1.1.1 </tspan>
<tspan x="10" y="4314">  │ │   └── duplexer2@0.1.4 </tspan>
<tspan x="10" y="4330">  │ ├── os-browserify@0.1.2 </tspan>
<tspan x="10" y="4346">  │ ├─┬ parents@1.0.1 </tspan>
<tspan x="10" y="4362">  │ │ └── path-platform@0.11.15 </tspan>
<tspan x="10" y="4378">  │ ├── path-browserify@0.0.0 </tspan>
<tspan x="10" y="4394">  │ ├── process@0.11.9 </tspan>
<tspan x="10" y="4410">  │ ├── punycode@1.4.1 </tspan>
<tspan x="10" y="4426">  │ ├── querystring-es3@0.2.1 </tspan>
<tspan x="10" y="4442">  │ ├── read-only-stream@2.0.0 </tspan>
<tspan x="10" y="4458">  │ ├─┬ readable-stream@2.2.9 </tspan>
<tspan x="10" y="4474">  │ │ ├── buffer-shims@1.0.0 </tspan>
<tspan x="10" y="4490">  │ │ ├── core-util-is@1.0.2 </tspan>
<tspan x="10" y="4506">  │ │ ├── process-nextick-args@1.0.7 </tspan>
<tspan x="10" y="4522">  │ │ ├── string_decoder@1.0.0 </tspan>
<tspan x="10" y="4538">  │ │ └── util-deprecate@1.0.2 </tspan>
<tspan x="10" y="4554">  │ ├─┬ shasum@1.0.2 </tspan>
<tspan x="10" y="4570">  │ │ ├── json-stable-stringify@0.0.1 </tspan>
<tspan x="10" y="4586">  │ │ └── sha.js@2.4.8 </tspan>
<tspan x="10" y="4602">  │ ├─┬ shell-quote@1.6.1 </tspan>
<tspan x="10" y="4618">  │ │ ├── array-filter@0.0.1 </tspan>
<tspan x="10" y="4634">  │ │ ├── array-map@0.0.0 </tspan>
<tspan x="10" y="4650">  │ │ ├── array-reduce@0.0.0 </tspan>
<tspan x="10" y="4666">  │ │ └── jsonify@0.0.0 </tspan>
<tspan x="10" y="4682">  │ ├── stream-browserify@2.0.1 </tspan>
<tspan x="10" y="4698">  │ ├─┬ stream-http@2.7.0 </tspan>
<tspan x="10" y="4714">  │ │ ├── builtin-status-codes@3.0.0 </tspan>
<tspan x="10" y="4730">  │ │ └── to-arraybuffer@1.0.1 </tspan>
<tspan x="10" y="4746">  │ ├── string_decoder@0.10.31 </tspan>
<tspan x="10" y="4762">  │ ├─┬ subarg@1.0.0 </tspan>
<tspan x="10" y="4778">  │ │ └── minimist@1.2.0 </tspan>
<tspan x="10" y="4794">  │ ├─┬ syntax-error@1.3.0 </tspan>
<tspan x="10" y="4810">  │ │ └── acorn@4.0.11 </tspan>
<tspan x="10" y="4826">  │ ├── timers-browserify@1.4.2 </tspan>
<tspan x="10" y="4842">  │ ├── tty-browserify@0.0.0 </tspan>
<tspan x="10" y="4858">  │ ├─┬ url@0.11.0 </tspan>
<tspan x="10" y="4874">  │ │ ├── punycode@1.3.2 </tspan>
<tspan x="10" y="4890">  │ │ └── querystring@0.2.0 </tspan>
<tspan x="10" y="4906">  │ ├─┬ util@0.10.3 </tspan>
<tspan x="10" y="4922">  │ │ └── inherits@2.0.1 </tspan>
<tspan x="10" y="4938">  │ ├─┬ vm-browserify@0.0.4 </tspan>
<tspan x="10" y="4954">  │ │ └── indexof@0.0.1 </tspan>
<tspan x="10" y="4970">  │ └── xtend@4.0.1 </tspan>
<tspan x="10" y="4986">  ├─┬ browserify-shim@3.8.12 </tspan>
<tspan x="10" y="5002">  │ ├─┬ exposify@0.4.3 </tspan>
<tspan x="10" y="5018">  │ │ ├─┬ globo@1.0.2 </tspan>
<tspan x="10" y="5034">  │ │ │ ├─┬ accessory@1.0.1 </tspan>
<tspan x="10" y="5050">  │ │ │ │ └── dot-parts@1.0.1 </tspan>
<tspan x="10" y="5066">  │ │ │ ├── is-defined@1.0.0 </tspan>
<tspan x="10" y="5082">  │ │ │ └── ternary@1.0.0 </tspan>
<tspan x="10" y="5098">  │ │ ├── has-require@1.1.0 </tspan>
<tspan x="10" y="5114">  │ │ ├── map-obj@1.0.1 </tspan>
<tspan x="10" y="5130">  │ │ ├─┬ replace-requires@1.0.4 </tspan>
<tspan x="10" y="5146">  │ │ │ ├── has-require@1.2.2 </tspan>
<tspan x="10" y="5162">  │ │ │ └── patch-text@1.0.2 </tspan>
<tspan x="10" y="5178">  │ │ ├─┬ through2@0.4.2 </tspan>
<tspan x="10" y="5194">  │ │ │ ├─┬ readable-stream@1.0.34 </tspan>
<tspan x="10" y="5210">  │ │ │ │ ├── isarray@0.0.1 </tspan>
<tspan x="10" y="5226">  │ │ │ │ └── string_decoder@0.10.31 </tspan>
<tspan x="10" y="5242">  │ │ │ └─┬ xtend@2.1.2 </tspan>
<tspan x="10" y="5258">  │ │ │   └── object-keys@0.4.0 </tspan>
<tspan x="10" y="5274">  │ │ └─┬ transformify@0.1.2 </tspan>
<tspan x="10" y="5290">  │ │   └─┬ readable-stream@1.1.14 </tspan>
<tspan x="10" y="5306">  │ │     ├── isarray@0.0.1 </tspan>
<tspan x="10" y="5322">  │ │     └── string_decoder@0.10.31 </tspan>
<tspan x="10" y="5338">  │ ├─┬ mothership@0.2.0 </tspan>
<tspan x="10" y="5354">  │ │ └── find-parent-dir@0.3.0 </tspan>
<tspan x="10" y="5370">  │ ├─┬ rename-function-calls@0.1.1 </tspan>
<tspan x="10" y="5386">  │ │ └─┬ detective@3.1.0 </tspan>
<tspan x="10" y="5402">  │ │   ├─┬ escodegen@1.1.0 </tspan>
<tspan x="10" y="5418">  │ │   │ ├── esprima@1.0.4 </tspan>
<tspan x="10" y="5434">  │ │   │ ├── esutils@1.0.0 </tspan>
<tspan x="10" y="5450">  │ │   │ └── source-map@0.1.43 </tspan>
<tspan x="10" y="5466">  │ │   └── esprima-fb@3001.1.0-dev-harmony-fb </tspan>
<tspan x="10" y="5482">  │ ├── resolve@0.6.3 </tspan>
<tspan x="10" y="5498">  │ └── through@2.3.8 </tspan>
<tspan x="10" y="5514">  ├─┬ caller-id@0.1.0 </tspan>
<tspan x="10" y="5530">  │ └── stack-trace@0.0.9 </tspan>
<tspan x="10" y="5546">  ├─┬ chalk@1.1.3 </tspan>
<tspan x="10" y="5562">  │ ├── ansi-styles@2.2.1 </tspan>
<tspan x="10" y="5578">  │ ├── escape-string-regexp@1.0.5 </tspan>
<tspan x="10" y="5594">  │ ├─┬ has-ansi@2.0.0 </tspan>
<tspan x="10" y="5610">  │ │ └── ansi-regex@2.1.1 </tspan>
<tspan x="10" y="5626">  │ ├── strip-ansi@3.0.1 </tspan>
<tspan x="10" y="5642">  │ └── supports-color@2.0.0 </tspan>
<tspan x="10" y="5658">  ├── classnames@2.2.5 </tspan>
<tspan x="10" y="5674">  ├─┬ cloudinary@1.5.0 </tspan>
<tspan x="10" y="5690">  │ ├── lodash@3.10.1 </tspan>
<tspan x="10" y="5706">  │ └── q@1.4.1 </tspan>
<tspan x="10" y="5722">  ├── cloudinary-microurl@1.0.2 </tspan>
<tspan x="10" y="5738">  ├─┬ compression@1.6.2 </tspan>
<tspan x="10" y="5754">  │ ├─┬ accepts@1.3.3 </tspan>
<tspan x="10" y="5770">  │ │ └── negotiator@0.6.1 </tspan>
<tspan x="10" y="5786">  │ ├── bytes@2.3.0 </tspan>
<tspan x="10" y="5802">  │ ├─┬ compressible@2.0.10 </tspan>
<tspan x="10" y="5818">  │ │ └── mime-db@1.27.0 </tspan>
<tspan x="10" y="5834">  │ ├─┬ debug@2.2.0 </tspan>
<tspan x="10" y="5850">  │ │ └── ms@0.7.1 </tspan>
<tspan x="10" y="5866">  │ ├── on-headers@1.0.1 </tspan>
<tspan x="10" y="5882">  │ └── vary@1.1.1 </tspan>
<tspan x="10" y="5898">  ├── connect-flash@0.1.1 </tspan>
<tspan x="10" y="5914">  ├─┬ cookie-parser@1.4.3 </tspan>
<tspan x="10" y="5930">  │ ├── cookie@0.3.1 </tspan>
<tspan x="10" y="5946">  │ └── cookie-signature@1.0.6 </tspan>
<tspan x="10" y="5962">  ├─┬ debug@2.6.0 </tspan>
<tspan x="10" y="5978">  │ └── ms@0.7.2 </tspan>
<tspan x="10" y="5994">  ├── display-name@0.1.0 </tspan>
<tspan x="10" y="6010">  ├── ejs@2.5.5 </tspan>
<tspan x="10" y="6026">  ├── elemental@0.6.1 </tspan>
<tspan x="10" y="6042">  ├─┬ embedly@2.1.0 </tspan>
<tspan x="10" y="6058">  │ ├─┬ hashish@0.0.4 </tspan>
<tspan x="10" y="6074">  │ │ └── traverse@0.6.6 </tspan>
<tspan x="10" y="6090">  │ ├── lodash@4.13.1 </tspan>
<tspan x="10" y="6106">  │ ├── sprintf@0.1.1 </tspan>
<tspan x="10" y="6122">  │ └─┬ superagent@1.8.3 </tspan>
<tspan x="10" y="6138">  │   ├── component-emitter@1.2.1 </tspan>
<tspan x="10" y="6154">  │   ├── cookiejar@2.0.6 </tspan>
<tspan x="10" y="6170">  │   ├── extend@3.0.0 </tspan>
<tspan x="10" y="6186">  │   ├─┬ form-data@1.0.0-rc3 </tspan>
<tspan x="10" y="6202">  │   │ ├── async@1.5.2 </tspan>
<tspan x="10" y="6218">  │   │ └─┬ combined-stream@1.0.5 </tspan>
<tspan x="10" y="6234">  │   │   └── delayed-stream@1.0.0 </tspan>
<tspan x="10" y="6250">  │   ├── formidable@1.0.17 </tspan>
<tspan x="10" y="6266">  │   ├── qs@2.3.3 </tspan>
<tspan x="10" y="6282">  │   ├─┬ readable-stream@1.0.27-1 </tspan>
<tspan x="10" y="6298">  │   │ ├── isarray@0.0.1 </tspan>
<tspan x="10" y="6314">  │   │ └── string_decoder@0.10.31 </tspan>
<tspan x="10" y="6330">  │   └── reduce-component@1.0.1 </tspan>
<tspan x="10" y="6346">  ├─┬ errorhandler@1.5.0 </tspan>
<tspan x="10" y="6362">  │ └── escape-html@1.0.3 </tspan>
<tspan x="10" y="6378">  ├── es6-promise@4.0.5 </tspan>
<tspan x="10" y="6394">  ├─┬ express@4.14.0 </tspan>
<tspan x="10" y="6410">  │ ├── array-flatten@1.1.1 </tspan>
<tspan x="10" y="6426">  │ ├── content-disposition@0.5.1 </tspan>
<tspan x="10" y="6442">  │ ├─┬ debug@2.2.0 </tspan>
<tspan x="10" y="6458">  │ │ └── ms@0.7.1 </tspan>
<tspan x="10" y="6474">  │ ├── encodeurl@1.0.1 </tspan>
<tspan x="10" y="6490">  │ ├── etag@1.7.0 </tspan>
<tspan x="10" y="6506">  │ ├─┬ finalhandler@0.5.0 </tspan>
<tspan x="10" y="6522">  │ │ └─┬ debug@2.2.0 </tspan>
<tspan x="10" y="6538">  │ │   └── ms@0.7.1 </tspan>
<tspan x="10" y="6554">  │ ├── fresh@0.3.0 </tspan>
<tspan x="10" y="6570">  │ ├── merge-descriptors@1.0.1 </tspan>
<tspan x="10" y="6586">  │ ├── methods@1.1.2 </tspan>
<tspan x="10" y="6602">  │ ├── parseurl@1.3.1 </tspan>
<tspan x="10" y="6618">  │ ├── path-to-regexp@0.1.7 </tspan>
<tspan x="10" y="6634">  │ ├─┬ proxy-addr@1.1.4 </tspan>
<tspan x="10" y="6650">  │ │ ├── forwarded@0.1.0 </tspan>
<tspan x="10" y="6666">  │ │ └── ipaddr.js@1.3.0 </tspan>
<tspan x="10" y="6682">  │ ├── qs@6.2.0 </tspan>
<tspan x="10" y="6698">  │ ├── range-parser@1.2.0 </tspan>
<tspan x="10" y="6714">  │ ├─┬ send@0.14.1 </tspan>
<tspan x="10" y="6730">  │ │ ├── debug@2.2.0 </tspan>
<tspan x="10" y="6746">  │ │ ├── destroy@1.0.4 </tspan>
<tspan x="10" y="6762">  │ │ └── ms@0.7.1 </tspan>
<tspan x="10" y="6778">  │ ├─┬ serve-static@1.11.2 </tspan>
<tspan x="10" y="6794">  │ │ └─┬ send@0.14.2 </tspan>
<tspan x="10" y="6810">  │ │   └─┬ debug@2.2.0 </tspan>
<tspan x="10" y="6826">  │ │     └── ms@0.7.1 </tspan>
<tspan x="10" y="6842">  │ └── utils-merge@1.0.0 </tspan>
<tspan x="10" y="6858">  ├─┬ express-request-language@1.1.9 </tspan>
<tspan x="10" y="6874">  │ ├─┬ @types/express@4.0.35 </tspan>
<tspan x="10" y="6890">  │ │ ├─┬ @types/express-serve-static-core@4.0.44 </tspan>
<tspan x="10" y="6906">  │ │ │ └── @types/node@7.0.13 </tspan>
<tspan x="10" y="6922">  │ │ └─┬ @types/serve-static@1.7.31 </tspan>
<tspan x="10" y="6938">  │ │   └── @types/mime@0.0.29 </tspan>
<tspan x="10" y="6954">  │ ├── accept-language@3.0.15 </tspan>
<tspan x="10" y="6970">  │ └── bcp47@1.1.2 </tspan>
<tspan x="10" y="6986">  ├─┬ express-session@1.15.0 </tspan>
<tspan x="10" y="7002">  │ ├── crc@3.4.4 </tspan>
<tspan x="10" y="7018">  │ └─┬ uid-safe@2.1.4 </tspan>
<tspan x="10" y="7034">  │   └── random-bytes@1.0.0 </tspan>
<tspan x="10" y="7050">  ├─┬ expression-match@0.0.17 </tspan>
<tspan x="10" y="7066">  │ └── lodash@4.11.1 </tspan>
<tspan x="10" y="7082">  ├─┬ fs-extra@1.0.0 </tspan>
<tspan x="10" y="7098">  │ ├── graceful-fs@4.1.11 </tspan>
<tspan x="10" y="7114">  │ ├── jsonfile@2.4.0 </tspan>
<tspan x="10" y="7130">  │ └── klaw@1.3.1 </tspan>
<tspan x="10" y="7146">  ├─┬ grappling-hook@3.0.0 </tspan>
<tspan x="10" y="7162">  │ ├── async@0.9.2 </tspan>
<tspan x="10" y="7178">  │ └── lodash@3.10.1 </tspan>
<tspan x="10" y="7194">  ├── i@0.3.5 </tspan>
<tspan x="10" y="7210">  ├─┬ kerberos@0.0.22 </tspan>
<tspan x="10" y="7226">  │ └── nan@2.4.0 </tspan>
<tspan x="10" y="7242">  ├── keystone-storage-namefunctions@1.1.1 </tspan>
<tspan x="10" y="7258">  ├─┬ keystone-utils@0.4.0 </tspan>
<tspan x="10" y="7274">  │ ├── html-stringify@0.0.3 </tspan>
<tspan x="10" y="7290">  │ ├── randomkey@1.0.0 </tspan>
<tspan x="10" y="7306">  │ └── speakingurl@9.0.0 </tspan>
<tspan x="10" y="7322">  ├─┬ knox@0.9.2 </tspan>
<tspan x="10" y="7338">  │ ├─┬ debug@1.0.4 </tspan>
<tspan x="10" y="7354">  │ │ └── ms@0.6.2 </tspan>
<tspan x="10" y="7370">  │ ├── mime@1.3.4 </tspan>
<tspan x="10" y="7386">  │ ├─┬ once@1.4.0 </tspan>
<tspan x="10" y="7402">  │ │ └── wrappy@1.0.2 </tspan>
<tspan x="10" y="7418">  │ ├── stream-counter@1.0.0 </tspan>
<tspan x="10" y="7434">  │ └─┬ xml2js@0.4.17 </tspan>
<tspan x="10" y="7450">  │   ├── sax@1.2.2 </tspan>
<tspan x="10" y="7466">  │   └── xmlbuilder@4.2.1 </tspan>
<tspan x="10" y="7482">  ├─┬ less-middleware@2.2.0 </tspan>
<tspan x="10" y="7498">  │ ├─┬ less@2.7.2 </tspan>
<tspan x="10" y="7514">  │ │ ├─┬ errno@0.1.4 </tspan>
<tspan x="10" y="7530">  │ │ │ └── prr@0.0.0 </tspan>
<tspan x="10" y="7546">  │ │ ├── image-size@0.5.1 </tspan>
<tspan x="10" y="7562">  │ │ ├── promise@7.1.1 </tspan>
<tspan x="10" y="7578">  │ │ └─┬ request@2.81.0 </tspan>
<tspan x="10" y="7594">  │ │   ├── aws-sign2@0.6.0 </tspan>
<tspan x="10" y="7610">  │ │   ├── aws4@1.6.0 </tspan>
<tspan x="10" y="7626">  │ │   ├── caseless@0.12.0 </tspan>
<tspan x="10" y="7642">  │ │   ├── forever-agent@0.6.1 </tspan>
<tspan x="10" y="7658">  │ │   ├─┬ form-data@2.1.4 </tspan>
<tspan x="10" y="7674">  │ │   │ └── asynckit@0.4.0 </tspan>
<tspan x="10" y="7690">  │ │   ├─┬ har-validator@4.2.1 </tspan>
<tspan x="10" y="7706">  │ │   │ ├─┬ ajv@4.11.7 </tspan>
<tspan x="10" y="7722">  │ │   │ │ ├── co@4.6.0 </tspan>
<tspan x="10" y="7738">  │ │   │ │ └── json-stable-stringify@1.0.1 </tspan>
<tspan x="10" y="7754">  │ │   │ └── har-schema@1.0.5 </tspan>
<tspan x="10" y="7770">  │ │   ├─┬ hawk@3.1.3 </tspan>
<tspan x="10" y="7786">  │ │   │ ├── boom@2.10.1 </tspan>
<tspan x="10" y="7802">  │ │   │ ├── cryptiles@2.0.5 </tspan>
<tspan x="10" y="7818">  │ │   │ ├── hoek@2.16.3 </tspan>
<tspan x="10" y="7834">  │ │   │ └── sntp@1.0.9 </tspan>
<tspan x="10" y="7850">  │ │   ├─┬ http-signature@1.1.1 </tspan>
<tspan x="10" y="7866">  │ │   │ ├── assert-plus@0.2.0 </tspan>
<tspan x="10" y="7882">  │ │   │ ├─┬ jsprim@1.4.0 </tspan>
<tspan x="10" y="7898">  │ │   │ │ ├── assert-plus@1.0.0 </tspan>
<tspan x="10" y="7914">  │ │   │ │ ├── extsprintf@1.0.2 </tspan>
<tspan x="10" y="7930">  │ │   │ │ ├── json-schema@0.2.3 </tspan>
<tspan x="10" y="7946">  │ │   │ │ └── verror@1.3.6 </tspan>
<tspan x="10" y="7962">  │ │   │ └─┬ sshpk@1.13.0 </tspan>
<tspan x="10" y="7978">  │ │   │   ├── asn1@0.2.3 </tspan>
<tspan x="10" y="7994">  │ │   │   ├── assert-plus@1.0.0 </tspan>
<tspan x="10" y="8010">  │ │   │   ├── bcrypt-pbkdf@1.0.1 </tspan>
<tspan x="10" y="8026">  │ │   │   ├─┬ dashdash@1.14.1 </tspan>
<tspan x="10" y="8042">  │ │   │   │ └── assert-plus@1.0.0 </tspan>
<tspan x="10" y="8058">  │ │   │   ├── ecc-jsbn@0.1.1 </tspan>
<tspan x="10" y="8074">  │ │   │   ├─┬ getpass@0.1.6 </tspan>
<tspan x="10" y="8090">  │ │   │   │ └── assert-plus@1.0.0 </tspan>
<tspan x="10" y="8106">  │ │   │   ├── jodid25519@1.0.2 </tspan>
<tspan x="10" y="8122">  │ │   │   ├── jsbn@0.1.1 </tspan>
<tspan x="10" y="8138">  │ │   │   └── tweetnacl@0.14.5 </tspan>
<tspan x="10" y="8154">  │ │   ├── is-typedarray@1.0.0 </tspan>
<tspan x="10" y="8170">  │ │   ├── isstream@0.1.2 </tspan>
<tspan x="10" y="8186">  │ │   ├── json-stringify-safe@5.0.1 </tspan>
<tspan x="10" y="8202">  │ │   ├── oauth-sign@0.8.2 </tspan>
<tspan x="10" y="8218">  │ │   ├── performance-now@0.2.0 </tspan>
<tspan x="10" y="8234">  │ │   ├── qs@6.4.0 </tspan>
<tspan x="10" y="8250">  │ │   ├── safe-buffer@5.0.1 </tspan>
<tspan x="10" y="8266">  │ │   ├── stringstream@0.0.5 </tspan>
<tspan x="10" y="8282">  │ │   ├── tough-cookie@2.3.2 </tspan>
<tspan x="10" y="8298">  │ │   ├── tunnel-agent@0.6.0 </tspan>
<tspan x="10" y="8314">  │ │   └── uuid@3.0.1 </tspan>
<tspan x="10" y="8330">  │ ├─┬ mkdirp@0.5.1 </tspan>
<tspan x="10" y="8346">  │ │ └── minimist@0.0.8 </tspan>
<tspan x="10" y="8362">  │ └─┬ node.extend@1.1.6 </tspan>
<tspan x="10" y="8378">  │   └── is@3.2.1 </tspan>
<tspan x="10" y="8394">  ├─┬ letsencrypt-express@2.0.6 </tspan>
<tspan x="10" y="8410">  │ ├── le-challenge-fs@2.0.8 </tspan>
<tspan x="10" y="8426">  │ ├─┬ le-sni-auto@2.1.1 </tspan>
<tspan x="10" y="8442">  │ │ └── bluebird@3.5.0 </tspan>
<tspan x="10" y="8458">  │ ├─┬ le-store-certbot@2.0.5 </tspan>
<tspan x="10" y="8474">  │ │ ├── pyconf@1.1.2 </tspan>
<tspan x="10" y="8490">  │ │ └── safe-replace@1.0.2 </tspan>
<tspan x="10" y="8506">  │ ├─┬ letsencrypt@2.1.8 </tspan>
<tspan x="10" y="8522">  │ │ ├── asn1js@1.2.12 </tspan>
<tspan x="10" y="8538">  │ │ ├─┬ certpem@1.0.1 </tspan>
<tspan x="10" y="8554">  │ │ │ └── buffer-v6-polyfill@1.0.3 </tspan>
<tspan x="10" y="8570">  │ │ ├── homedir@0.6.0 </tspan>
<tspan x="10" y="8586">  │ │ ├── le-acme-core@2.0.9 </tspan>
<tspan x="10" y="8602">  │ │ ├─┬ le-challenge-sni@2.0.1 </tspan>
<tspan x="10" y="8618">  │ │ │ └── le-tls-sni@0.1.4 </tspan>
<tspan x="10" y="8634">  │ │ ├── pkijs@1.3.33 </tspan>
<tspan x="10" y="8650">  │ │ └─┬ rsa-compat@1.2.7 </tspan>
<tspan x="10" y="8666">  │ │   ├── node-forge@0.6.49 </tspan>
<tspan x="10" y="8682">  │ │   └─┬ ursa@0.9.4 </tspan>
<tspan x="10" y="8698">  │ │     └── bindings@1.2.1 </tspan>
<tspan x="10" y="8714">  │ ├── localhost.daplie.com-certificates@1.2.5 </tspan>
<tspan x="10" y="8730">  │ └── redirect-https@1.1.1 </tspan>
<tspan x="10" y="8746">  ├── list-to-array@1.1.0 </tspan>
<tspan x="10" y="8762">  ├── lodash@4.17.4 </tspan>
<tspan x="10" y="8778">  ├── marked@0.3.6 </tspan>
<tspan x="10" y="8794">  ├─┬ method-override@2.3.7 </tspan>
<tspan x="10" y="8810">  │ └── debug@2.3.3 </tspan>
<tspan x="10" y="8826">  ├─┬ mime-types@2.1.14 </tspan>
<tspan x="10" y="8842">  │ └── mime-db@1.26.0 </tspan>
<tspan x="10" y="8858">  ├── moment@2.17.1 </tspan>
<tspan x="10" y="8874">  ├─┬ mongoose@4.7.8 </tspan>
<tspan x="10" y="8890">  │ ├── bson@1.0.4 </tspan>
<tspan x="10" y="8906">  │ ├── hooks-fixed@1.2.0 </tspan>
<tspan x="10" y="8922">  │ ├── kareem@1.2.0 </tspan>
<tspan x="10" y="8938">  │ ├─┬ mongodb@2.2.21 </tspan>
<tspan x="10" y="8954">  │ │ ├── es6-promise@3.2.1 </tspan>
<tspan x="10" y="8970">  │ │ ├─┬ mongodb-core@2.1.6 </tspan>
<tspan x="10" y="8986">  │ │ │ └─┬ require_optional@1.0.0 </tspan>
<tspan x="10" y="9002">  │ │ │   └── resolve-from@2.0.0 </tspan>
<tspan x="10" y="9018">  │ │ └─┬ readable-stream@2.1.5 </tspan>
<tspan x="10" y="9034">  │ │   └── string_decoder@0.10.31 </tspan>
<tspan x="10" y="9050">  │ ├── mpath@0.2.1 </tspan>
<tspan x="10" y="9066">  │ ├── mpromise@0.5.5 </tspan>
<tspan x="10" y="9082">  │ ├─┬ mquery@2.0.0 </tspan>
<tspan x="10" y="9098">  │ │ ├── bluebird@2.10.2 </tspan>
<tspan x="10" y="9114">  │ │ ├─┬ debug@2.2.0 </tspan>
<tspan x="10" y="9130">  │ │ │ └── ms@0.7.1 </tspan>
<tspan x="10" y="9146">  │ │ └── sliced@0.0.5 </tspan>
<tspan x="10" y="9162">  │ ├── muri@1.2.0 </tspan>
<tspan x="10" y="9178">  │ ├── regexp-clone@0.0.1 </tspan>
<tspan x="10" y="9194">  │ └── sliced@1.0.1 </tspan>
<tspan x="10" y="9210">  ├─┬ morgan@1.7.0 </tspan>
<tspan x="10" y="9226">  │ ├── basic-auth@1.0.4 </tspan>
<tspan x="10" y="9242">  │ └─┬ debug@2.2.0 </tspan>
<tspan x="10" y="9258">  │   └── ms@0.7.1 </tspan>
<tspan x="10" y="9274">  ├─┬ multer@0.1.8 </tspan>
<tspan x="10" y="9290">  │ ├─┬ busboy@0.2.14 </tspan>
<tspan x="10" y="9306">  │ │ ├─┬ dicer@0.2.5 </tspan>
<tspan x="10" y="9322">  │ │ │ ├─┬ readable-stream@1.1.14 </tspan>
<tspan x="10" y="9338">  │ │ │ │ ├── isarray@0.0.1 </tspan>
<tspan x="10" y="9354">  │ │ │ │ └── string_decoder@0.10.31 </tspan>
<tspan x="10" y="9370">  │ │ │ └── streamsearch@0.1.2 </tspan>
<tspan x="10" y="9386">  │ │ └─┬ readable-stream@1.1.14 </tspan>
<tspan x="10" y="9402">  │ │   ├── isarray@0.0.1 </tspan>
<tspan x="10" y="9418">  │ │   └── string_decoder@0.10.31 </tspan>
<tspan x="10" y="9434">  │ ├── mkdirp@0.3.5 </tspan>
<tspan x="10" y="9450">  │ ├── qs@1.2.2 </tspan>
<tspan x="10" y="9466">  │ └─┬ type-is@1.5.7 </tspan>
<tspan x="10" y="9482">  │   └─┬ mime-types@2.0.14 </tspan>
<tspan x="10" y="9498">  │     └── mime-db@1.12.0 </tspan>
<tspan x="10" y="9514">  ├── numeral@2.0.4 </tspan>
<tspan x="10" y="9530">  ├── object-assign@4.1.1 </tspan>
<tspan x="10" y="9546">  ├── qs@4.0.0 </tspan>
<tspan x="10" y="9562">  ├── queryfilter@0.0.4 </tspan>
<tspan x="10" y="9578">  ├─┬ range_check@1.4.0 </tspan>
<tspan x="10" y="9594">  │ ├── ip6@0.0.4 </tspan>
<tspan x="10" y="9610">  │ └── ipaddr.js@1.2.0 </tspan>
<tspan x="10" y="9626">  ├─┬ react@15.4.2 </tspan>
<tspan x="10" y="9642">  │ ├─┬ fbjs@0.8.12 </tspan>
<tspan x="10" y="9658">  │ │ ├── core-js@1.2.7 </tspan>
<tspan x="10" y="9674">  │ │ ├─┬ isomorphic-fetch@2.2.1 </tspan>
<tspan x="10" y="9690">  │ │ │ ├─┬ node-fetch@1.6.3 </tspan>
<tspan x="10" y="9706">  │ │ │ │ ├── encoding@0.1.12 </tspan>
<tspan x="10" y="9722">  │ │ │ │ └── is-stream@1.1.0 </tspan>
<tspan x="10" y="9738">  │ │ │ └── whatwg-fetch@2.0.3 </tspan>
<tspan x="10" y="9754">  │ │ ├── setimmediate@1.0.5 </tspan>
<tspan x="10" y="9770">  │ │ └── ua-parser-js@0.7.12 </tspan>
<tspan x="10" y="9786">  │ └── loose-envify@1.3.1 </tspan>
<tspan x="10" y="9802">  ├── react-addons-css-transition-group@15.4.2 </tspan>
<tspan x="10" y="9818">  ├── react-alt-text@2.0.0 </tspan>
<tspan x="10" y="9834">  ├─┬ react-color@2.11.1 </tspan>
<tspan x="10" y="9850">  │ ├── material-colors@1.2.5 </tspan>
<tspan x="10" y="9866">  │ ├── reactcss@1.2.2 </tspan>
<tspan x="10" y="9882">  │ └── tinycolor2@1.4.1 </tspan>
<tspan x="10" y="9898">  ├─┬ react-day-picker@2.5.0 </tspan>
<tspan x="10" y="9914">  │ └── react-is-deprecated@0.1.2 </tspan>
<tspan x="10" y="9930">  ├─┬ react-dnd@2.1.4 </tspan>
<tspan x="10" y="9946">  │ ├── disposables@1.0.1 </tspan>
<tspan x="10" y="9962">  │ ├── dnd-core@2.3.0 </tspan>
<tspan x="10" y="9978">  │ └── invariant@2.2.2 </tspan>
<tspan x="10" y="9994">  ├── react-dnd-html5-backend@2.1.2 </tspan>
<tspan x="10" y="10010">  ├── react-dom@15.4.2 </tspan>
<tspan x="10" y="10026">  ├── react-domify@0.2.6 </tspan>
<tspan x="10" y="10042">  ├─┬ react-images@0.5.2 </tspan>
<tspan x="10" y="10058">  │ ├── aphrodite@0.5.0 </tspan>
<tspan x="10" y="10074">  │ └── react-scrolllock@1.0.5 </tspan>
<tspan x="10" y="10090">  ├─┬ react-markdown@2.4.4 </tspan>
<tspan x="10" y="10106">  │ ├─┬ commonmark@0.24.0 </tspan>
<tspan x="10" y="10122">  │ │ ├── entities@1.1.1 </tspan>
<tspan x="10" y="10138">  │ │ ├── mdurl@1.0.1 </tspan>
<tspan x="10" y="10154">  │ │ └── string.prototype.repeat@0.2.0 </tspan>
<tspan x="10" y="10170">  │ ├─┬ commonmark-react-renderer@4.3.2 </tspan>
<tspan x="10" y="10186">  │ │ ├── lodash.assign@4.2.0 </tspan>
<tspan x="10" y="10202">  │ │ ├── lodash.isplainobject@4.0.6 </tspan>
<tspan x="10" y="10218">  │ │ ├── pascalcase@0.1.1 </tspan>
<tspan x="10" y="10234">  │ │ └── xss-filters@1.2.7 </tspan>
<tspan x="10" y="10250">  │ └── in-publish@2.0.0 </tspan>
<tspan x="10" y="10266">  ├─┬ react-redux@5.0.2 </tspan>
<tspan x="10" y="10282">  │ ├── hoist-non-react-statics@1.2.0 </tspan>
<tspan x="10" y="10298">  │ └── lodash-es@4.17.4 </tspan>
<tspan x="10" y="10314">  ├─┬ react-router@3.0.2 </tspan>
<tspan x="10" y="10330">  │ ├─┬ history@3.3.0 </tspan>
<tspan x="10" y="10346">  │ │ └─┬ query-string@4.3.4 </tspan>
<tspan x="10" y="10362">  │ │   └── strict-uri-encode@1.1.0 </tspan>
<tspan x="10" y="10378">  │ └── warning@3.0.0 </tspan>
<tspan x="10" y="10394">  ├── react-router-redux@4.0.7 </tspan>
<tspan x="10" y="10410">  ├─┬ react-select@1.0.0-rc.1 </tspan>
<tspan x="10" y="10426">  │ └── react-input-autosize@1.1.0 </tspan>
<tspan x="10" y="10442">  ├─┬ redux@3.6.0 </tspan>
<tspan x="10" y="10458">  │ └── symbol-observable@1.0.4 </tspan>
<tspan x="10" y="10474">  ├── redux-saga@0.14.3 </tspan>
<tspan x="10" y="10490">  ├── redux-thunk@2.2.0 </tspan>
<tspan x="10" y="10506">  ├─┬ sanitize-filename@1.6.1 </tspan>
<tspan x="10" y="10522">  │ └─┬ truncate-utf8-bytes@1.0.2 </tspan>
<tspan x="10" y="10538">  │   └── utf8-byte-length@1.0.4 </tspan>
<tspan x="10" y="10554">  ├── scmp@1.0.2 </tspan>
<tspan x="10" y="10570">  ├── semver@5.3.0 </tspan>
<tspan x="10" y="10586">  ├── serve-favicon@2.3.2 </tspan>
<tspan x="10" y="10602">  ├── string-to-stream@1.1.0 </tspan>
<tspan x="10" y="10618">  ├── vkey@1.0.1 </tspan>
<tspan x="10" y="10634">  ├─┬ watchify@3.8.0 </tspan>
<tspan x="10" y="10650">  │ ├─┬ anymatch@1.3.0 </tspan>
<tspan x="10" y="10666">  │ │ ├── arrify@1.0.1 </tspan>
<tspan x="10" y="10682">  │ │ └─┬ micromatch@2.3.11 </tspan>
<tspan x="10" y="10698">  │ │   ├─┬ arr-diff@2.0.0 </tspan>
<tspan x="10" y="10714">  │ │   │ └── arr-flatten@1.0.3 </tspan>
<tspan x="10" y="10730">  │ │   ├── array-unique@0.2.1 </tspan>
<tspan x="10" y="10746">  │ │   ├─┬ braces@1.8.5 </tspan>
<tspan x="10" y="10762">  │ │   │ ├─┬ expand-range@1.8.2 </tspan>
<tspan x="10" y="10778">  │ │   │ │ └─┬ fill-range@2.2.3 </tspan>
<tspan x="10" y="10794">  │ │   │ │   ├── is-number@2.1.0 </tspan>
<tspan x="10" y="10810">  │ │   │ │   ├── isobject@2.1.0 </tspan>
<tspan x="10" y="10826">  │ │   │ │   ├── randomatic@1.1.6 </tspan>
<tspan x="10" y="10842">  │ │   │ │   └── repeat-string@1.6.1 </tspan>
<tspan x="10" y="10858">  │ │   │ ├── preserve@0.2.0 </tspan>
<tspan x="10" y="10874">  │ │   │ └── repeat-element@1.1.2 </tspan>
<tspan x="10" y="10890">  │ │   ├─┬ expand-brackets@0.1.5 </tspan>
<tspan x="10" y="10906">  │ │   │ └── is-posix-bracket@0.1.1 </tspan>
<tspan x="10" y="10922">  │ │   ├── extglob@0.3.2 </tspan>
<tspan x="10" y="10938">  │ │   ├── filename-regex@2.0.0 </tspan>
<tspan x="10" y="10954">  │ │   ├── is-extglob@1.0.0 </tspan>
<tspan x="10" y="10970">  │ │   ├── kind-of@3.2.0 </tspan>
<tspan x="10" y="10986">  │ │   ├─┬ normalize-path@2.1.1 </tspan>
<tspan x="10" y="11002">  │ │   │ └── remove-trailing-separator@1.0.1 </tspan>
<tspan x="10" y="11018">  │ │   ├─┬ object.omit@2.0.1 </tspan>
<tspan x="10" y="11034">  │ │   │ ├─┬ for-own@0.1.5 </tspan>
<tspan x="10" y="11050">  │ │   │ │ └── for-in@1.0.2 </tspan>
<tspan x="10" y="11066">  │ │   │ └── is-extendable@0.1.1 </tspan>
<tspan x="10" y="11082">  │ │   ├─┬ parse-glob@3.0.4 </tspan>
<tspan x="10" y="11098">  │ │   │ ├── glob-base@0.3.0 </tspan>
<tspan x="10" y="11114">  │ │   │ └── is-dotfile@1.0.2 </tspan>
<tspan x="10" y="11130">  │ │   └─┬ regex-cache@0.4.3 </tspan>
<tspan x="10" y="11146">  │ │     ├── is-equal-shallow@0.1.3 </tspan>
<tspan x="10" y="11162">  │ │     └── is-primitive@2.0.0 </tspan>
<tspan x="10" y="11178">  │ ├─┬ chokidar@1.6.1 </tspan>
<tspan x="10" y="11194">  │ │ ├── async-each@1.0.1 </tspan>
<tspan x="10" y="11210">  │ │ ├── glob-parent@2.0.0 </tspan>
<tspan x="10" y="11226">  │ │ ├─┬ is-binary-path@1.0.1 </tspan>
<tspan x="10" y="11242">  │ │ │ └── binary-extensions@1.8.0 </tspan>
<tspan x="10" y="11258">  │ │ ├── is-glob@2.0.1 </tspan>
<tspan x="10" y="11274">  │ │ └─┬ readdirp@2.1.0 </tspan>
<tspan x="10" y="11290">  │ │   └── set-immediate-shim@1.0.1 </tspan>
<tspan x="10" y="11306">  │ └── outpipe@1.1.1 </tspan>
<tspan x="10" y="11322">  └─┬ xhr@2.3.3 </tspan>
<tspan x="10" y="11338">    ├─┬ global@4.3.2 </tspan>
<tspan x="10" y="11354">    │ ├─┬ min-document@2.19.0 </tspan>
<tspan x="10" y="11370">    │ │ └── dom-walk@0.1.1 </tspan>
<tspan x="10" y="11386">    │ └── process@0.5.2 </tspan>
<tspan x="10" y="11402">    ├── is-function@1.0.1 </tspan>
<tspan x="10" y="11418">    └─┬ parse-headers@2.0.1 </tspan>
<tspan x="10" y="11434">      ├── for-each@0.3.2 </tspan>
<tspan x="10" y="11450">      └── trim@0.0.1</tspan>
</text>
</svg>
